<svg width="64" height="64" viewBox="0 0 64 64" fill="none" xmlns="http://www.w3.org/2000/svg">
<path fill-rule="evenodd" clip-rule="evenodd" d="M56.8083 52.2141C61.304 46.7033 64 39.6665 64 32C64 14.3269 49.6731 0 32 0C20.6007 0 10.5935 5.96052 4.92513 14.9349C1.97012 27.3218 8.45856 38.564 19.8248 42.2813L35.3548 9.41935H36.7742L56.8083 52.2141ZM52.1709 56.8435L48.5062 48.9032H23.2847L17.7644 60.6671C22.0521 62.8003 26.8859 64 32 64C39.6465 64 46.6666 61.318 52.1709 56.8435ZM12.6411 57.4822C4.95908 51.6372 0 42.3977 0 32C0 28.3485 0.611585 24.8399 1.73791 21.571C-0.692895 35.0569 6.8987 44.6547 17.1434 47.9552L12.6411 57.4822ZM36 21.8064L45.9454 43.3548H25.8883L36 21.8064Z" fill="#DA251D"/>
</svg>
