<?xml version="1.0" standalone="no"?>
<!DOCTYPE svg PUBLIC "-//W3C//DTD SVG 20010904//EN"
 "http://www.w3.org/TR/2001/REC-SVG-20010904/DTD/svg10.dtd">
<svg version="1.0" xmlns="http://www.w3.org/2000/svg"
 width="700.000000pt" height="700.000000pt" viewBox="0 0 700.000000 700.000000"
 preserveAspectRatio="xMidYMid meet">
<metadata>
Created by potrace 1.14, written by Peter Selinger 2001-2017
</metadata>
<g transform="translate(0.000000,700.000000) scale(0.100000,-0.100000)"
fill="#000000" stroke="none">
<path d="M3278 6995 c-2 -1 -42 -5 -89 -9 -47 -4 -95 -8 -105 -10 -10 -2 -41
-7 -69 -10 -64 -9 -97 -14 -165 -27 -94 -18 -103 -20 -185 -40 -44 -12 -87
-22 -95 -24 -8 -2 -58 -17 -110 -33 -230 -72 -483 -182 -690 -300 -86 -49
-301 -187 -339 -218 -9 -7 -52 -41 -96 -75 -134 -104 -340 -299 -460 -434 -65
-72 -216 -268 -273 -352 -74 -110 -79 -126 -128 -463 -3 -25 -7 -135 -9 -245
-2 -197 2 -260 30 -455 28 -192 112 -458 205 -655 63 -133 198 -352 272 -440
9 -11 33 -40 53 -65 111 -136 235 -250 445 -413 28 -22 160 -107 165 -107 3 0
23 -11 45 -25 100 -63 439 -215 480 -215 6 0 29 39 51 87 22 47 76 160 120
251 43 91 79 166 79 167 0 2 32 70 71 152 39 81 82 173 96 203 14 30 46 98 71
150 132 279 157 331 187 395 18 39 53 113 78 165 24 52 61 129 80 170 19 41
56 120 82 175 26 55 67 141 90 190 58 122 120 253 199 419 36 76 66 140 66
142 0 1 34 74 76 161 42 87 89 185 104 218 41 88 127 271 161 340 16 33 29 64
29 68 0 5 9 21 19 35 10 15 19 29 20 32 0 3 6 20 13 38 l12 32 79 0 78 0 53
-112 c29 -62 68 -144 86 -183 18 -38 51 -108 73 -155 43 -92 318 -680 372
-795 18 -38 51 -108 73 -155 72 -155 184 -394 222 -475 81 -173 265 -566 316
-674 30 -62 54 -114 54 -116 0 -1 34 -73 75 -160 41 -86 75 -158 75 -160 0 -2
24 -54 54 -116 29 -63 65 -139 79 -169 14 -30 48 -104 77 -165 65 -137 126
-266 152 -325 11 -25 43 -92 70 -150 81 -170 134 -284 229 -489 19 -41 57
-121 84 -179 l50 -104 81 108 c149 199 250 366 358 588 36 75 66 139 66 142 0
3 8 24 19 47 53 118 147 417 177 562 17 81 54 301 59 350 4 33 9 71 11 85 9
46 11 524 4 605 -15 153 -21 210 -25 225 -2 8 -7 35 -10 60 -17 129 -80 384
-136 552 -323 963 -1056 1744 -1999 2131 -222 91 -558 185 -760 212 -19 3 -46
7 -60 10 -13 2 -52 7 -86 11 -33 3 -74 8 -90 10 -32 5 -541 14 -546 9z"/>
<path d="M176 4598 c-2 -7 -13 -44 -24 -83 -47 -156 -56 -190 -68 -250 -2 -11
-10 -54 -19 -95 -29 -147 -36 -200 -52 -370 -15 -165 -8 -592 12 -711 2 -13 6
-46 9 -74 9 -78 22 -152 51 -285 69 -323 242 -753 414 -1030 29 -47 58 -94 64
-105 23 -37 170 -240 214 -295 91 -112 211 -239 349 -371 75 -70 242 -209 253
-209 4 0 24 35 44 78 19 42 126 267 236 500 110 232 203 431 206 441 5 15 -2
22 -32 31 -284 91 -630 286 -863 486 -155 133 -336 339 -450 514 -163 251
-314 647 -345 906 -4 26 -8 50 -10 54 -9 15 -20 212 -20 370 0 205 9 329 35
468 7 38 4 59 -4 30z"/>
<path d="M3906 4547 c-16 -34 -55 -117 -87 -184 -32 -67 -68 -144 -80 -170
-12 -26 -41 -88 -64 -138 -23 -49 -57 -121 -75 -160 -18 -38 -64 -135 -101
-213 -38 -79 -69 -145 -69 -147 0 -2 -23 -53 -51 -112 -89 -188 -136 -286
-162 -343 -31 -68 -87 -187 -164 -350 -32 -69 -72 -154 -89 -190 -16 -35 -52
-112 -80 -170 -28 -58 -50 -107 -48 -109 5 -5 2174 -4 2180 2 5 4 -11 41 -94
217 -21 47 -50 108 -62 135 -45 100 -138 302 -168 365 -17 36 -98 211 -180
390 -83 179 -166 359 -185 400 -19 41 -46 100 -60 130 -156 342 -321 696 -326
702 -3 4 -19 -21 -35 -55z"/>
<path d="M2525 1608 c-24 -56 -157 -340 -306 -655 -23 -49 -58 -124 -79 -168
-70 -150 -112 -240 -151 -323 -21 -45 -39 -87 -39 -92 0 -10 76 -48 212 -104
268 -111 572 -194 847 -232 25 -3 57 -7 70 -10 197 -30 696 -25 908 10 21 4
54 9 73 11 19 3 46 7 60 10 14 2 39 7 55 10 191 36 411 101 622 184 130 52
418 192 473 231 15 11 33 20 39 20 6 0 11 5 11 10 0 6 4 10 9 10 27 0 371 247
371 266 0 6 -21 56 -46 110 -25 55 -57 124 -71 154 -14 30 -45 97 -69 148 -24
51 -44 95 -44 97 0 1 -26 59 -59 126 -32 68 -69 148 -81 177 l-22 52 -1382 0
-1382 0 -19 -42z"/>
</g>
</svg>
